<svg width="1078" height="263" viewBox="0 0 1078 263" fill="none" xmlns="http://www.w3.org/2000/svg">
<path d="M116.38 262.04L232.46 194.99L116.37 127.72L0 194.82L116.38 262.04ZM116.38 137.43L156.05 227.44L116.37 250.36L76.71 227.41L116.38 137.43Z" fill="white"/>
<mask id="mask0_4_3" style="mask-type:luminance" maskUnits="userSpaceOnUse" x="0" y="127" width="233" height="136">
<path d="M116.38 262.04L232.46 194.99L116.37 127.72L0 194.82L116.38 262.04ZM116.38 137.43L156.05 227.44L116.37 250.36L76.71 227.41L116.38 137.43Z" fill="white"/>
</mask>
<g mask="url(#mask0_4_3)">
<path d="M248.25 -1.01001H-15.81V263.05H248.25V-1.01001Z" fill="white"/>
</g>
<path d="M33.84 133.69L20.47 125.91V72.72L85.77 35.02V133.69L105.99 122.04V0L0.25 61.05V109.06V133.74V153.06L33.84 133.69Z" fill="white"/>
<mask id="mask1_4_3" style="mask-type:luminance" maskUnits="userSpaceOnUse" x="0" y="0" width="106" height="154">
<path d="M33.84 133.69L20.47 125.91V72.72L85.77 35.02V133.69L105.99 122.04V0L0.25 61.05V109.06V133.74V153.06L33.84 133.69Z" fill="white"/>
</mask>
<g mask="url(#mask1_4_3)">
<path d="M248.25 -1.01001H-15.81V263.05H248.25V-1.01001Z" fill="white"/>
</g>
<path d="M198.62 133.69L211.98 125.91V72.72L146.68 35.02V133.69L126.46 122.04V0L232.2 61.05V109.06V133.74V153.06L198.62 133.69Z" fill="white"/>
<mask id="mask2_4_3" style="mask-type:luminance" maskUnits="userSpaceOnUse" x="126" y="0" width="107" height="154">
<path d="M198.62 133.69L211.98 125.91V72.72L146.68 35.02V133.69L126.46 122.04V0L232.2 61.05V109.06V133.74V153.06L198.62 133.69Z" fill="white"/>
</mask>
<g mask="url(#mask2_4_3)">
<path d="M248.25 -1.01001H-15.81V263.05H248.25V-1.01001Z" fill="white"/>
</g>
<path d="M543.83 94.67L515.75 170.87L489.6 99.29H466.38L503.02 189.22C504.61 193.13 508.42 195.68 512.64 195.68H525.65L566.66 94.66H543.83V94.67Z" fill="white"/>
<path d="M641.03 167.78C633.42 174.93 625.74 179.65 613.46 179.65C605.65 179.65 598.77 177.3 593.56 172.85C588.17 168.24 584.66 161.45 583.43 153.19L583.3 152.33H658.25C658.42 150.31 658.58 148.41 658.58 146.53C658.58 119.66 643.74 92.55 610.58 92.55C582.66 92.55 561.61 115.01 561.61 144.79V145.18C561.61 175.34 583.26 197.23 613.08 197.23C629.69 197.23 642.97 191.26 653.65 178.97L641.04 167.78H641.03ZM583.23 137.56C585.47 120.64 595.87 110.12 610.38 110.12C617.86 110.12 624.32 112.91 629.05 118.2C633.4 123.06 636.13 129.76 636.95 137.58L637.04 138.41H583.13L583.24 137.56H583.23Z" fill="white"/>
<path d="M778.21 112.25C785 112.25 790.32 114.48 794.01 118.88C797.71 123.29 799.58 129.67 799.58 137.86V189.38C799.58 192.44 802.06 194.91 805.11 194.91H821.39V130.72C821.39 106.46 808.67 92.55 786.49 92.55C772.73 92.55 762.02 98.15 752.78 110.18L752.05 111.13L751.51 110.06C745.87 98.77 735.29 92.55 721.73 92.55C705.81 92.55 697.11 101.76 691.31 109.78L689.95 111.66V94.68H667.94V189.39C667.94 192.45 670.42 194.92 673.47 194.92H689.94V138.25C689.94 122.46 698.78 112.25 712.47 112.25C719.26 112.25 724.57 114.47 728.27 118.85C731.97 123.23 733.84 129.56 733.84 137.67V189.39C733.84 192.45 736.32 194.92 739.37 194.92H755.65V138.25C755.65 122.22 764.28 112.25 778.18 112.25H778.21Z" fill="white"/>
<path d="M836.77 94.67V189.38C836.77 192.44 839.25 194.91 842.3 194.91H858.77V94.67H836.76H836.77Z" fill="white"/>
<path d="M920.81 112.25C935.13 112.25 943.34 121.58 943.34 137.86V189.38C943.34 192.44 945.82 194.91 948.87 194.91H965.15V130.72C965.15 106.82 951.89 92.55 929.67 92.55C913.05 92.55 904.28 101.86 898.49 109.96L897.13 111.87V94.67H875.12V189.38C875.12 192.44 877.6 194.91 880.65 194.91H897.12V138.24C897.12 130.31 899.38 123.69 903.66 119.11C907.85 114.62 913.78 112.25 920.81 112.25Z" fill="white"/>
<path d="M1077.88 194.92V55.75H1056.06V112L1054.71 110.17C1046.06 98.48 1034.59 92.55 1020.63 92.55C997.54 92.55 974.17 110.43 974.17 144.6V144.99C974.17 179.16 997.54 197.04 1020.63 197.04C1034.61 197.04 1045.75 190.9 1054.7 178.28L1056.06 176.36V189.39C1056.06 192.45 1058.54 194.92 1061.59 194.92H1077.87H1077.88ZM1047.36 169.09C1041.72 175.03 1034.21 178.31 1026.22 178.31C1018.23 178.31 1010.55 175.06 1005.03 169.16C999.32 163.07 996.18 154.48 996.18 144.99V144.6C996.18 125.29 1008.81 111.28 1026.22 111.28C1034.23 111.28 1041.74 114.53 1047.36 120.43C1053.23 126.58 1056.46 135.17 1056.46 144.6V144.99C1056.46 154.35 1053.23 162.91 1047.37 169.09H1047.36Z" fill="white"/>
<path d="M424.17 105.53V85.06L404.68 88.74V61.53H382.48V92.93L342.9 100.39V61.53H320.7V104.58L297.46 108.96V129.43L320.7 125.05V143.37L297.46 147.75V168.22L320.7 163.84V189.39C320.7 192.45 323.18 194.92 326.23 194.92H342.9V159.65L382.48 152.19V189.39C382.48 192.45 384.96 194.92 388.01 194.92H404.68V148L424.17 144.32V123.85L404.68 127.53V109.21L424.17 105.53ZM382.48 131.72L342.9 139.18V120.86L382.48 113.4V131.72Z" fill="white"/>
<path d="M435.19 121.78V189.39C435.19 192.45 437.67 194.92 440.72 194.92H457.19V117.63L435.18 121.78H435.19Z" fill="white"/>
<path d="M435.19 103.44L457.19 99.29V78.82L435.19 82.97V103.44Z" fill="white"/>
<path d="M836.77 66.46L858.78 62.31V41.84L836.77 45.99V66.46Z" fill="white"/>
</svg>
